<svg xmlns:xlink="http://www.w3.org/1999/xlink" xmlns="http://www.w3.org/2000/svg" fill="none" height="430" width="977"><path d="m511.5 136.1s101.824-157.068 207.839-102.3c106.014 54.768-242.6 124.246-67.855 19.73 174.745-104.517 324.914-19.851 324.914-19.851m-482.398 145.821c-167 0-516.194 6.994-370-70.5 133-70.5-46.45 241.054-46.45 241.054m477.087-186.311s174.379-48.728 239.745 31.819m-432.882-143.062c48.167-9.667 144.5-1.8 144.5 107m153.904-58.562c-40.465-9.568-125.691-26.973-83.453-47.415 38.425-18.597-32.451 86.98-32.451 86.98m-152 229.497c-5-49 6-61 47-57s72-42 60-77c-6.171-18 3.333-51 17-59m-4.158-9s-122.488 123.843-118.514 68.254c3.973-55.588-92.646 34.012-92.646 34.012zm10.234 14.071s234.835 143.342 158.677 26.387c-35.068-45.952-115.681 221.185-115.681 221.185zm0 30.353s237.32 147.2 415.754 116.919z-81.735-505.662-154.732z" stroke="#e3e4e5"/></svg>